<svg viewBox="0 0 102 101" fill="none" xmlns="http://www.w3.org/2000/svg" class="" >
<path d="M53.1228 25.1388C59.2995 24.3158 64.0645 19.0268 64.0645 12.625C64.0645 5.65241 58.412 0 51.4395 0C44.4669 0 38.8145 5.65241 38.8145 12.625C38.8145 19.0268 43.5794 24.3158 49.7561 25.1388V46.4361L34.6966 31.3766C38.4823 26.4271 38.1118 19.3179 33.585 14.7911C28.6546 9.86072 20.6609 9.86072 15.7306 14.7911C10.8002 19.7215 10.8002 27.7152 15.7306 32.6455C20.2573 37.1723 27.3665 37.5429 32.316 33.7572L47.3755 48.8167H26.0782C25.2552 42.6399 19.9663 37.875 13.5645 37.875C6.59186 37.875 0.939453 43.5274 0.939453 50.5C0.939452 57.4726 6.59186 63.125 13.5645 63.125C19.9663 63.125 25.2552 58.3601 26.0782 52.1833H47.3755L32.316 67.2427C27.3665 63.4571 20.2574 63.8277 15.7306 68.3544C10.8003 73.2848 10.8003 81.2785 15.7306 86.2089C20.661 91.1393 28.6547 91.1393 33.5851 86.2089C38.1119 81.6821 38.4824 74.5729 34.6966 69.6233L49.7561 54.5639V75.8612C43.5794 76.6842 38.8145 81.9732 38.8145 88.375C38.8145 95.3476 44.4669 101 51.4395 101C58.412 101 64.0645 95.3476 64.0645 88.375C64.0645 81.9732 59.2995 76.6842 53.1228 75.8612V54.564L68.1823 69.6235C64.3966 74.573 64.7672 81.6821 69.2939 86.2089C74.2243 91.1393 82.218 91.1393 87.1484 86.2089C92.0788 81.2785 92.0788 73.2848 87.1484 68.3545C82.6216 63.8277 75.5124 63.4571 70.5629 67.2429L55.5033 52.1833H76.8007C77.6237 58.3601 82.9126 63.125 89.3145 63.125C96.287 63.125 101.939 57.4726 101.939 50.5C101.939 43.5274 96.2871 37.875 89.3145 37.875C82.9126 37.875 77.6237 42.6399 76.8007 48.8167H55.5033L70.5628 33.7572C75.5123 37.5429 82.6215 37.1723 87.1483 32.6456C92.0787 27.7152 92.0787 19.7215 87.1483 14.7911C82.2179 9.86074 74.2242 9.86074 69.2938 14.7911C64.767 19.3179 64.3965 26.427 68.1822 31.3766L53.1228 46.436V25.1388Z" fill="currentColor"/>
</svg>
